<svg xmlns="http://www.w3.org/2000/svg" width="800" height="600" viewBox="0 0 800 600">
  <rect width="800" height="600" fill="#FBFAF6"/>
  <!-- Ruled paper -->
  <line x1="60" y1="0" x2="60" y2="600" stroke="#C8102E" stroke-width="1.5" opacity="0.3"/>
  <line x1="0" y1="80" x2="800" y2="80" stroke="#D8D4C8" stroke-width="1"/>
  <line x1="0" y1="140" x2="800" y2="140" stroke="#D8D4C8" stroke-width="1"/>
  <line x1="0" y1="200" x2="800" y2="200" stroke="#D8D4C8" stroke-width="1"/>
  <line x1="0" y1="260" x2="800" y2="260" stroke="#D8D4C8" stroke-width="1"/>
  <line x1="0" y1="320" x2="800" y2="320" stroke="#D8D4C8" stroke-width="1"/>
  <line x1="0" y1="380" x2="800" y2="380" stroke="#D8D4C8" stroke-width="1"/>
  <line x1="0" y1="440" x2="800" y2="440" stroke="#D8D4C8" stroke-width="1"/>
  <line x1="0" y1="500" x2="800" y2="500" stroke="#D8D4C8" stroke-width="1"/>
  <!-- Building illustration - NRB -->
  <rect x="240" y="160" width="320" height="340" fill="#F0EDE5" stroke="#161513" stroke-width="2"/>
  <!-- Columns -->
  <rect x="260" y="200" width="24" height="280" fill="#E8E4D8" stroke="#D8D4C8" stroke-width="1"/>
  <rect x="310" y="200" width="24" height="280" fill="#E8E4D8" stroke="#D8D4C8" stroke-width="1"/>
  <rect x="360" y="200" width="24" height="280" fill="#E8E4D8" stroke="#D8D4C8" stroke-width="1"/>
  <rect x="410" y="200" width="24" height="280" fill="#E8E4D8" stroke="#D8D4C8" stroke-width="1"/>
  <rect x="460" y="200" width="24" height="280" fill="#E8E4D8" stroke="#D8D4C8" stroke-width="1"/>
  <rect x="510" y="200" width="24" height="280" fill="#E8E4D8" stroke="#D8D4C8" stroke-width="1"/>
  <!-- Pediment -->
  <polygon points="220,160 580,160 540,110 260,110" fill="#F0EDE5" stroke="#161513" stroke-width="2"/>
  <!-- Frieze -->
  <rect x="240" y="154" width="320" height="20" fill="#E8E4D8" stroke="#161513" stroke-width="1"/>
  <text x="400" y="168" font-family="Georgia,serif" font-size="10" fill="#8B867B" text-anchor="middle">NEPAL RASTRA BANK</text>
  <!-- Door -->
  <rect x="370" y="400" width="60" height="100" rx="2" fill="#161513"/>
  <circle cx="424" cy="450" r="3" fill="#E89B2C"/>
  <!-- Windows -->
  <rect x="270" y="250" width="40" height="52" rx="1" fill="#C8D8E8" stroke="#8B867B" stroke-width="1"/>
  <rect x="350" y="250" width="40" height="52" rx="1" fill="#C8D8E8" stroke="#8B867B" stroke-width="1"/>
  <rect x="430" y="250" width="40" height="52" rx="1" fill="#C8D8E8" stroke="#8B867B" stroke-width="1"/>
  <rect x="510" y="250" width="40" height="52" rx="1" fill="#C8D8E8" stroke="#8B867B" stroke-width="1"/>
  <rect x="270" y="330" width="40" height="52" rx="1" fill="#C8D8E8" stroke="#8B867B" stroke-width="1"/>
  <rect x="350" y="330" width="40" height="52" rx="1" fill="#C8D8E8" stroke="#8B867B" stroke-width="1"/>
  <rect x="430" y="330" width="40" height="52" rx="1" fill="#C8D8E8" stroke="#8B867B" stroke-width="1"/>
  <rect x="510" y="330" width="40" height="52" rx="1" fill="#C8D8E8" stroke="#8B867B" stroke-width="1"/>
  <!-- Steps -->
  <rect x="220" y="500" width="360" height="10" fill="#E8E4D8" stroke="#D8D4C8" stroke-width="1"/>
  <rect x="210" y="510" width="380" height="10" fill="#E8E4D8" stroke="#D8D4C8" stroke-width="1"/>
  <!-- Annotation card -->
  <rect x="30" y="100" width="180" height="120" rx="3" fill="#fff" stroke="#D8D4C8" stroke-width="1.5"/>
  <rect x="30" y="100" width="180" height="28" rx="3" fill="#161513"/>
  <text x="40" y="119" font-family="monospace" font-size="10" fill="#FBFAF6">NRB · FY23/24</text>
  <text x="40" y="148" font-family="Georgia,serif" font-size="12" fill="#161513">7 bank CEOs</text>
  <text x="40" y="166" font-family="Georgia,serif" font-size="12" fill="#161513">interviewed.</text>
  <text x="40" y="184" font-family="monospace" font-size="10" fill="#C8102E">Blueprint adopted.</text>
  <text x="40" y="204" font-family="monospace" font-size="9" fill="#8B867B">age 19.</text>
  <!-- Second card -->
  <rect x="590" y="200" width="180" height="160" rx="3" fill="#161513"/>
  <text x="608" y="228" font-family="monospace" font-size="10" fill="#8B867B">BENCHMARKED</text>
  <text x="608" y="258" font-family="Georgia,serif" font-size="28" font-weight="bold" fill="#C8102E">8yrs</text>
  <text x="608" y="278" font-family="monospace" font-size="10" fill="#8B867B">global policy</text>
  <line x1="608" y1="292" x2="758" y2="292" stroke="#2E2A25" stroke-width="1"/>
  <text x="608" y="312" font-family="monospace" font-size="10" fill="#8B867B">SOFR · TARGET2</text>
  <text x="608" y="332" font-family="monospace" font-size="10" fill="#8B867B">SONIA benchmarks</text>
  <text x="608" y="350" font-family="monospace" font-size="9" fill="#5A5550">interbank platform</text>
  <!-- Title bar -->
  <rect x="0" y="0" width="800" height="56" fill="#161513"/>
  <text x="30" y="26" font-family="Georgia,serif" font-size="17" font-weight="bold" fill="#FBFAF6">Interbank Platform Blueprint</text>
  <text x="30" y="46" font-family="monospace" font-size="10" fill="#C8102E">Nepal Rastra Bank · monetary policy analyst · national reform agenda</text>
  <text x="700" y="34" font-family="Georgia,serif" font-size="20" font-weight="bold" fill="#E89B2C">$20B</text>
  <text x="700" y="48" font-family="monospace" font-size="9" fill="#8B867B">shaped</text>
  <!-- Caption -->
  <rect x="0" y="560" width="800" height="40" fill="#161513"/>
  <text x="30" y="585" font-family="monospace" font-size="12" fill="#8B867B">PHOTO / NRB / presenting the blueprint · nepal rastra bank</text>
</svg>
