<svg xmlns="http://www.w3.org/2000/svg" width="800" height="600" viewBox="0 0 800 600">
  <rect width="800" height="600" fill="#FBFAF6"/>
  <!-- Header bar -->
  <rect x="0" y="0" width="800" height="56" fill="#161513"/>
  <text x="30" y="28" font-family="Georgia,serif" font-size="18" font-weight="bold" fill="#FBFAF6">Pivt</text>
  <text x="90" y="28" font-family="monospace" font-size="11" fill="#8B867B">retention + churn dashboard</text>
  <rect x="660" y="14" width="110" height="26" rx="3" fill="#C8102E"/>
  <text x="715" y="31" font-family="monospace" font-size="10" fill="#FBFAF6" text-anchor="middle">+20% RETENTION</text>
  <!-- Sidebar -->
  <rect x="0" y="56" width="180" height="544" fill="#F0EDE5"/>
  <rect x="0" y="56" width="180" height="544" fill="none" stroke="#D8D4C8" stroke-width="1"/>
  <text x="20" y="88" font-family="monospace" font-size="10" fill="#8B867B">METRICS</text>
  <rect x="10" y="96" width="160" height="32" rx="3" fill="#161513"/>
  <text x="20" y="117" font-family="monospace" font-size="11" fill="#FBFAF6">Retention</text>
  <text x="10" y="150" font-family="monospace" font-size="11" fill="#161513">Churn Rate</text>
  <text x="10" y="176" font-family="monospace" font-size="11" fill="#8B867B">DAU / MAU</text>
  <text x="10" y="202" font-family="monospace" font-size="11" fill="#8B867B">LTV</text>
  <text x="10" y="228" font-family="monospace" font-size="11" fill="#8B867B">Cohort View</text>
  <line x1="10" y1="244" x2="170" y2="244" stroke="#D8D4C8" stroke-width="1"/>
  <text x="20" y="268" font-family="monospace" font-size="10" fill="#8B867B">EXPERIMENTS</text>
  <text x="10" y="292" font-family="monospace" font-size="11" fill="#161513">Onboarding A/B</text>
  <text x="10" y="316" font-family="monospace" font-size="11" fill="#8B867B">Email Nudge</text>
  <text x="10" y="340" font-family="monospace" font-size="11" fill="#8B867B">Paywall Test</text>
  <!-- Main content -->
  <!-- Retention curve -->
  <rect x="196" y="72" width="580" height="220" rx="4" fill="#fff" stroke="#D8D4C8" stroke-width="1"/>
  <text x="216" y="98" font-family="monospace" font-size="11" fill="#8B867B">30-DAY RETENTION CURVE</text>
  <!-- Before line (grey) -->
  <polyline points="216,260 252,248 288,238 324,232 360,230 396,228 432,228 468,229 504,231 540,234 576,238 612,243 648,249 684,256 720,264 756,272" fill="none" stroke="#D8D4C8" stroke-width="2"/>
  <!-- After line (red) -->
  <polyline points="216,260 252,242 288,224 324,210 360,200 396,192 432,187 468,184 504,182 540,181 576,180 612,180 648,181 684,183 720,185 756,188" fill="none" stroke="#C8102E" stroke-width="2.5"/>
  <!-- Fill under after curve -->
  <polygon points="216,280 216,260 252,242 288,224 324,210 360,200 396,192 432,187 468,184 504,182 540,181 576,180 612,180 648,181 684,183 720,185 756,188 756,280" fill="#C8102E" fill-opacity="0.06"/>
  <!-- Labels -->
  <text x="760" y="192" font-family="monospace" font-size="9" fill="#C8102E">AFTER</text>
  <text x="760" y="276" font-family="monospace" font-size="9" fill="#8B867B">BEFORE</text>
  <text x="216" y="278" font-family="monospace" font-size="9" fill="#8B867B">Day 1</text>
  <text x="480" y="278" font-family="monospace" font-size="9" fill="#8B867B">Day 15</text>
  <text x="730" y="278" font-family="monospace" font-size="9" fill="#8B867B">Day 30</text>
  <!-- Y axis labels -->
  <text x="196" y="186" font-family="monospace" font-size="9" fill="#8B867B">100%</text>
  <text x="196" y="222" font-family="monospace" font-size="9" fill="#8B867B">80%</text>
  <text x="196" y="246" font-family="monospace" font-size="9" fill="#8B867B">60%</text>
  <text x="196" y="268" font-family="monospace" font-size="9" fill="#8B867B">40%</text>
  <!-- Stat cards row -->
  <rect x="196" y="308" width="134" height="90" rx="3" fill="#161513"/>
  <text x="214" y="336" font-family="monospace" font-size="10" fill="#8B867B">RETENTION</text>
  <text x="214" y="368" font-family="Georgia,serif" font-size="30" font-weight="bold" fill="#C8102E">+20%</text>
  <text x="214" y="388" font-family="monospace" font-size="9" fill="#5A5550">4 weeks</text>
  <rect x="346" y="308" width="134" height="90" rx="3" fill="#fff" stroke="#D8D4C8" stroke-width="1"/>
  <text x="364" y="336" font-family="monospace" font-size="10" fill="#8B867B">CHURN</text>
  <text x="364" y="368" font-family="Georgia,serif" font-size="30" font-weight="bold" fill="#161513">−14%</text>
  <text x="364" y="388" font-family="monospace" font-size="9" fill="#8B867B">reduced</text>
  <rect x="496" y="308" width="134" height="90" rx="3" fill="#fff" stroke="#D8D4C8" stroke-width="1"/>
  <text x="514" y="336" font-family="monospace" font-size="10" fill="#8B867B">EXPTS RUN</text>
  <text x="514" y="368" font-family="Georgia,serif" font-size="30" font-weight="bold" fill="#161513">60+</text>
  <text x="514" y="388" font-family="monospace" font-size="9" fill="#8B867B">A/B tests</text>
  <rect x="646" y="308" width="130" height="90" rx="3" fill="#fff" stroke="#D8D4C8" stroke-width="1"/>
  <text x="664" y="336" font-family="monospace" font-size="10" fill="#8B867B">TIMELINE</text>
  <text x="664" y="368" font-family="Georgia,serif" font-size="30" font-weight="bold" fill="#161513">4wk</text>
  <text x="664" y="388" font-family="monospace" font-size="9" fill="#8B867B">NYC sprint</text>
  <!-- Sankey-style flow -->
  <rect x="196" y="416" width="580" height="120" rx="3" fill="#fff" stroke="#D8D4C8" stroke-width="1"/>
  <text x="216" y="438" font-family="monospace" font-size="10" fill="#8B867B">USER FLOW AFTER REDESIGN</text>
  <rect x="216" y="448" width="80" height="70" rx="2" fill="#161513"/>
  <text x="256" y="480" font-family="monospace" font-size="9" fill="#FBFAF6" text-anchor="middle">SIGN UP</text>
  <text x="256" y="494" font-family="monospace" font-size="9" fill="#C8102E" text-anchor="middle">100%</text>
  <polygon points="296,462 340,452 340,518 296,508" fill="#C8102E" fill-opacity="0.2"/>
  <rect x="340" y="448" width="80" height="70" rx="2" fill="#2A2520"/>
  <text x="380" y="480" font-family="monospace" font-size="9" fill="#FBFAF6" text-anchor="middle">ONBOARD</text>
  <text x="380" y="494" font-family="monospace" font-size="9" fill="#E89B2C" text-anchor="middle">82%</text>
  <polygon points="420,456 464,456 464,512 420,512" fill="#C8102E" fill-opacity="0.2"/>
  <rect x="464" y="452" width="80" height="62" rx="2" fill="#2A2520"/>
  <text x="504" y="480" font-family="monospace" font-size="9" fill="#FBFAF6" text-anchor="middle">ACTIVE</text>
  <text x="504" y="494" font-family="monospace" font-size="9" fill="#E89B2C" text-anchor="middle">71%</text>
  <polygon points="544,458 588,462 588,508 544,504" fill="#C8102E" fill-opacity="0.2"/>
  <rect x="588" y="456" width="80" height="56" rx="2" fill="#C8102E"/>
  <text x="628" y="480" font-family="monospace" font-size="9" fill="#FBFAF6" text-anchor="middle">RETAINED</text>
  <text x="628" y="494" font-family="monospace" font-size="9" fill="#FBFAF6" text-anchor="middle">64%</text>
  <!-- Caption -->
  <rect x="0" y="560" width="800" height="40" fill="#161513"/>
  <text x="30" y="585" font-family="monospace" font-size="12" fill="#8B867B">PHOTO / Pivt dashboard redesign · retention +20% in 4 weeks · NYC</text>
</svg>
